<svg id="final_svg" xmlns="http://www.w3.org/2000/svg" xmlns:xlink="http://www.w3.org/1999/xlink" viewBox="651.9361572265625 230.7256317138672 191.5927734375 217.58583068847656">
      <style type="text/css">.st0{fill:url(#SVGID_1_);}	.st1{fill:url(#SVGID_2_);}	.st2{fill:url(#SVGID_3_);}	.st3{opacity:0.1;fill:url(#SVGID_4_);}	.st4{opacity:0.1;fill:url(#SVGID_5_);}</style>
    <metadata>
              <sfw>
                      <slices></slices>
            <slicesourcebounds bottomleftorigin="true" height="314.96" width="277.34" x="-15.62" y="0"></slicesourcebounds>
                  </sfw>
          </metadata>
    <g id="color_index_g" transform="translate(651.9366682365302, 230.6964971240971) scale(0.6908190658787485)" opacity="1">
              <linearGradient id="SVGID_1_" gradientUnits="userSpaceOnUse" x1="390.7943" y1="-77.3512" x2="-41.1998" y2="325.0253">
                      <stop offset="0.0591" style="stop-color:#192abf"></stop>
            <stop offset="0.9094" style="stop-color:#21a8f4"></stop>
                  </linearGradient>
        <linearGradient id="SVGID_2_" gradientUnits="userSpaceOnUse" x1="241.7579" y1="399.0367" x2="245.2497" y2="98.6544">
                      <stop offset="0.0591" style="stop-color:#192abf"></stop>
            <stop offset="0.9094" style="stop-color:#21a8f4"></stop>
                  </linearGradient>
        <linearGradient id="SVGID_3_" gradientUnits="userSpaceOnUse" x1="375.0913" y1="144.1598" x2="4.4489" y2="23.6845">
                      <stop offset="0.0591" style="stop-color:#192abf"></stop>
            <stop offset="0.9094" style="stop-color:#21a8f4"></stop>
                  </linearGradient>
        <path class="st0" d="M277.34,33.27v248.48c0,18.36-14.89,33.25-33.24,33.25c-18.36,0-33.25-14.89-33.25-33.25V113.52l-42.79,42.79		c-7.98,7.99-18.77,12.21-29.38,12.17c-10.61,0.04-21.42-4.18-29.4-12.17l-42.79-42.79v168.23c0,18.36-14.89,33.25-33.25,33.25		C14.89,315,0,300.11,0,281.75V33.27C-0.06,24.5,3.62,15.89,9.72,9.74c12.84-13.08,34.45-12.78,47.03,0l49.66,49.67l32.25,32.26		l81.93-81.93c12.58-12.78,34.19-13.08,47.03,0C273.72,15.89,277.4,24.5,277.34,33.27z"></path>
        <path class="st1" d="M277.34,127.29v154.47c0,18.36-14.89,33.25-33.25,33.25c-18.36,0-33.25-14.89-33.25-33.25V113.52l9.75-9.74		c12.87-13.06,34.38-12.85,47.01,0C274.11,110.26,277.34,118.77,277.34,127.29z"></path>
        <path class="st2" d="M277.34,33.27v94.02c0-8.52-3.23-17.03-9.73-23.51c-12.63-12.85-34.14-13.06-47.01,0l-9.75,9.74l-42.79,42.79		c-7.98,7.99-18.77,12.21-29.38,12.17c-10.61,0.04-21.42-4.18-29.4-12.17L66.5,113.53c0,0,0.26-54.11,39.91-54.12l32.25,32.26		l81.93-81.93c12.58-12.78,34.19-13.08,47.03,0C273.72,15.89,277.4,24.5,277.34,33.27z"></path>
          </g>
    <g transform="translate(651.9366682365302, 230.6964971240971) scale(0.6908190658787485)" opacity="1">
              <linearGradient id="SVGID_4_" gradientUnits="userSpaceOnUse" x1="61.1061" y1="108.1205" x2="105.0105" y2="60.3065">
                      <stop offset="0.2078" style="stop-color:#000000"></stop>
            <stop offset="0.8225" style="stop-color:#000000;stop-opacity:0"></stop>
                  </linearGradient>
        <linearGradient id="SVGID_5_" gradientUnits="userSpaceOnUse" x1="210.8484" y1="121.9892" x2="277.3399" y2="121.9892">
                      <stop offset="0.2078" style="stop-color:#000000"></stop>
            <stop offset="0.8225" style="stop-color:#000000;stop-opacity:0"></stop>
                  </linearGradient>
        <path class="st3" d="M113.75,66.74c-41.45-4.62-44.93,49.11-44.93,49.11l-2.32-2.32c0,0,0.26-54.12,39.92-54.12L113.75,66.74z"></path>
        <path class="st4" d="M277.34,127.28v22.66c-3.6-31.25-17.08-46.82-30.09-50.13c-13-3.31-23.85,6.25-23.85,6.25l-12.55,11.11v-3.65		l9.75-9.74c6.49-6.49,14.99-9.75,23.49-9.74c4.27-0.02,8.56,0.83,12.53,2.44c4,1.62,7.74,4.05,10.99,7.3		C274.11,110.26,277.34,118.77,277.34,127.28z"></path>
          </g>
    <g fill="#21a8f4" id="text_group" transform="translate(602.696, 469.55295204925363)" opacity="1.0">
              <path d=""></path>
          </g>
  </svg>