<svg width="149" height="38" viewBox="0 0 149 38" fill="none" xmlns="http://www.w3.org/2000/svg">
<g filter="url(#filter0_d_22_72)">
<path d="M4.56 1.12H6.16L15.88 18.32L25.56 1.12H27.04V28.96H4.56V1.12ZM6.04 27.52H25.56V4.12L16.56 19.96H15.16L6.04 3.88V27.52ZM35.8094 1.16H55.4094V2.64H37.2894V13.92H53.0494V15.4H37.2894V27.52H55.4094V29H35.8094V1.16ZM81.0588 2.08C82.6588 2.82667 83.9121 3.93333 84.8188 5.4C85.7521 6.86667 86.2188 8.49333 86.2188 10.28C86.2188 12.36 85.5788 14.2267 84.2988 15.88C83.0454 17.5067 81.4321 18.5867 79.4588 19.12L86.5388 29H84.7788L77.9388 19.4L76.6588 19.44H66.6188V29H65.1388V1.16H75.7388C76.9121 1.16 77.9121 1.24 78.7388 1.4C79.5921 1.53333 80.3654 1.76 81.0588 2.08ZM77.0588 17.96C78.4454 17.96 79.7254 17.6133 80.8988 16.92C82.0721 16.2267 83.0054 15.2933 83.6988 14.12C84.3921 12.9467 84.7388 11.6667 84.7388 10.28C84.7388 8.73333 84.3254 7.33333 83.4988 6.08C82.6988 4.82667 81.5788 3.89333 80.1388 3.28C79.0988 2.85333 77.6321 2.64 75.7388 2.64H66.6188V17.96H77.0588ZM114.428 23.28C113.708 25.12 112.401 26.64 110.508 27.84C108.615 29.0133 106.588 29.6 104.428 29.6C102.348 29.6 100.428 29.08 98.6681 28.04C96.9081 27 95.5081 25.5733 94.4681 23.76C93.4548 21.92 92.9481 19.9067 92.9481 17.72V12.12C92.9481 9.98667 93.4548 8.04 94.4681 6.28C95.5081 4.52 96.8948 3.13333 98.6281 2.12C100.388 1.08 102.321 0.559999 104.428 0.559999C106.161 0.559999 107.748 0.853333 109.188 1.44C110.628 2 111.855 2.82667 112.868 3.92C113.695 4.82666 114.361 5.84 114.868 6.96C115.401 8.08 115.668 9.21333 115.668 10.36H114.228C114.201 9.37333 113.948 8.4 113.468 7.44C113.015 6.48 112.428 5.61333 111.708 4.84C109.921 2.97333 107.495 2.04 104.428 2.04C102.588 2.04 100.895 2.49333 99.3481 3.4C97.8281 4.28 96.6281 5.49333 95.7481 7.04C94.8681 8.56 94.4281 10.2533 94.4281 12.12V17.72C94.4281 19.6667 94.8681 21.44 95.7481 23.04C96.6548 24.6133 97.8681 25.8533 99.3881 26.76C100.935 27.6667 102.615 28.12 104.428 28.12C106.268 28.12 107.948 27.68 109.468 26.8C111.015 25.8933 112.228 24.68 113.108 23.16C113.988 21.6133 114.428 19.9333 114.428 18.12V16.72H104.428V15.24H115.908V29H114.428V23.28ZM124.638 1.16H144.238V2.64H126.118V13.92H141.878V15.4H126.118V27.52H144.238V29H124.638V1.16Z" fill="#0A54E3"/>
</g>
<defs>
<filter id="filter0_d_22_72" x="0.559998" y="0.559998" width="147.677" height="37.04" filterUnits="userSpaceOnUse" color-interpolation-filters="sRGB">
<feFlood flood-opacity="0" result="BackgroundImageFix"/>
<feColorMatrix in="SourceAlpha" type="matrix" values="0 0 0 0 0 0 0 0 0 0 0 0 0 0 0 0 0 0 127 0" result="hardAlpha"/>
<feOffset dy="4"/>
<feGaussianBlur stdDeviation="2"/>
<feComposite in2="hardAlpha" operator="out"/>
<feColorMatrix type="matrix" values="0 0 0 0 0 0 0 0 0 0 0 0 0 0 0 0 0 0 0.25 0"/>
<feBlend mode="normal" in2="BackgroundImageFix" result="effect1_dropShadow_22_72"/>
<feBlend mode="normal" in="SourceGraphic" in2="effect1_dropShadow_22_72" result="shape"/>
</filter>
</defs>
</svg>
